<svg width="263" height="260" viewBox="0 0 263 260" fill="none" xmlns="http://www.w3.org/2000/svg">
<rect x="6" y="6" width="251" height="248" rx="19" fill="white" stroke="black" stroke-width="12"/>
<path d="M93.28 219.84C87.6533 219.84 82.8533 218.64 78.88 216.24C74.9067 213.813 71.8667 210.347 69.76 205.84C67.6533 201.307 66.6 195.907 66.6 189.64C66.6 183.507 67.6267 178.213 69.68 173.76C71.7333 169.28 74.7467 165.827 78.72 163.4C82.72 160.973 87.6133 159.76 93.4 159.76C97.5867 159.76 101.36 160.56 104.72 162.16C108.107 163.76 110.787 166.107 112.76 169.2C114.733 172.267 115.707 176.027 115.68 180.48H102.68C102.653 178.373 102.187 176.68 101.28 175.4C100.373 174.12 99.1467 173.2 97.6 172.64C96.08 172.053 94.36 171.76 92.44 171.76C89.8267 171.76 87.56 172.4 85.64 173.68C83.72 174.96 82.2267 176.947 81.16 179.64C80.12 182.307 79.6 185.733 79.6 189.92C79.6 194 80.1333 197.373 81.2 200.04C82.2933 202.68 83.8 204.64 85.72 205.92C87.6667 207.2 89.92 207.84 92.48 207.84C94.6667 207.84 96.52 207.547 98.04 206.96C99.56 206.347 100.72 205.48 101.52 204.36C102.347 203.213 102.76 201.827 102.76 200.2H115.8C115.827 204.2 114.84 207.68 112.84 210.64C110.84 213.573 108.133 215.84 104.72 217.44C101.307 219.04 97.4933 219.84 93.28 219.84ZM135.063 219L118.103 160.84H131.983L140.463 194.76L143.503 208.28H143.783L146.743 194.76L155.263 160.84H169.143L152.183 219H135.063ZM197.78 219.8C193.193 219.8 189.193 218.893 185.78 217.08C182.393 215.24 179.753 212.6 177.86 209.16C175.993 205.693 175.06 201.533 175.06 196.68V160.76H187.9V195.2C187.9 197.44 188.1 199.387 188.5 201.04C188.927 202.693 189.553 204.08 190.38 205.2C191.233 206.293 192.273 207.107 193.5 207.64C194.753 208.173 196.207 208.44 197.86 208.44C199.487 208.44 200.9 208.173 202.1 207.64C203.327 207.107 204.34 206.293 205.14 205.2C205.967 204.107 206.58 202.733 206.98 201.08C207.407 199.4 207.62 197.44 207.62 195.2V160.84H220.46V196.68C220.46 201.453 219.527 205.573 217.66 209.04C215.793 212.507 213.167 215.173 209.78 217.04C206.393 218.88 202.393 219.8 197.78 219.8Z" fill="black"/>
</svg>
