<svg width="259" height="284" viewBox="0 0 259 284" fill="none" xmlns="http://www.w3.org/2000/svg">
<path d="M93.8721 0.230469C106.209 0.230469 118.793 0.847331 131.624 2.08105C144.578 3.19141 157.162 5.22705 169.376 8.18799C181.59 11.0256 193.063 15.0352 203.797 20.2168C214.53 25.2751 223.907 31.7521 231.926 39.6479C240.068 47.4204 246.484 56.7967 251.172 67.7769C255.86 78.6336 258.204 91.4027 258.204 106.084C258.204 126.317 254.565 143.404 247.286 157.345C240.007 171.163 230.075 182.328 217.491 190.841C222.796 198.983 227.361 207.496 231.186 216.379C235.01 225.262 238.094 233.898 240.438 242.287C242.906 250.553 244.695 258.264 245.805 265.419C246.916 272.575 247.471 278.559 247.471 283.37H200.096C200.096 275.844 199.479 268.75 198.245 262.088C197.011 255.303 195.284 248.888 193.063 242.842C190.843 236.674 188.252 230.875 185.291 225.447C182.453 220.018 179.369 214.775 176.038 209.717C164.318 213.048 151.919 215.454 138.841 216.934C125.764 218.291 112.131 218.97 97.9434 218.97C89.4307 218.97 80.7946 218.723 72.0352 218.229C63.2757 217.736 54.6396 217.119 46.127 216.379V282.63H0.232422V10.9639C2.94661 10.1003 7.26465 9.0516 13.1865 7.81787C19.2318 6.58415 26.3257 5.41211 34.4683 4.30176C42.7342 3.19141 51.9255 2.26611 62.042 1.52588C72.1585 0.662272 82.7686 0.230469 93.8721 0.230469ZM107.196 40.9434C99.0537 40.9434 91.2812 41.3135 83.8789 42.0537C76.4766 42.6706 69.9995 43.4108 64.4478 44.2744C57.7856 45.2614 51.6787 46.3717 46.127 47.6055V174.186C50.0749 175.049 54.4546 175.789 59.2661 176.406C63.3374 177.023 68.0872 177.578 73.5156 178.072C78.944 178.442 84.7425 178.627 90.9111 178.627C98.9303 178.627 107.381 178.442 116.264 178.072C125.27 177.578 134.153 176.53 142.913 174.926C151.795 173.322 160.185 170.978 168.081 167.894C176.1 164.686 183.132 160.491 189.177 155.31C195.346 150.005 200.219 143.466 203.797 135.693C207.498 127.921 209.349 118.545 209.349 107.564C209.349 98.4349 207.868 90.4157 204.907 83.5068C201.946 76.598 197.937 70.6761 192.878 65.7412C187.82 60.8063 181.898 56.735 175.113 53.5273C168.451 50.3197 161.295 47.7905 153.646 45.9399C146.12 44.0894 138.348 42.7939 130.329 42.0537C122.433 41.3135 114.722 40.9434 107.196 40.9434Z" fill="#3B82F6"/>
</svg>
