<svg width="132" height="132" viewBox="0 0 132 132" fill="none" xmlns="http://www.w3.org/2000/svg">
<path d="M45.5287 11.1749C45.5287 11.1749 38.7959 13.75 26.421 26.125C14.0913 38.4546 11.5057 45.1993 11.4869 45.2485C11.1864 51.1239 11 57.9948 11 66C11 89.8851 12.6597 103.672 14.057 111.047C14.9546 115.785 18.6514 119.032 23.4456 119.549C29.917 120.247 41.3366 121 60.5 121C79.6634 121 91.083 120.247 97.5543 119.549C102.349 119.032 106.046 115.785 106.943 111.047C108.34 103.672 110 89.8851 110 66C110 42.1149 108.34 28.328 106.943 20.9532C106.046 16.2155 102.349 12.9682 97.5543 12.4508C91.083 11.7525 79.6634 11 60.5 11C54.8633 11 49.8965 11.0652 45.5287 11.1749Z" fill="#EEF2FF"/>
<path d="M11.4869 45.251C19.4057 47.2425 28.7551 47.3748 36.8305 44.9081C40.2446 43.865 42.9066 41.2055 44.0589 37.8268C46.9293 29.4099 47.6385 19.1073 45.5288 11.1772C45.5288 11.1772 38.7962 13.7523 26.4211 26.1273C14.0461 38.5025 11.4869 45.251 11.4869 45.251Z" fill="#6366F1"/>
<path d="M71.8701 69.8574C72.1581 74.5962 75.2414 78.2664 79.9491 78.8807C83.5832 79.3551 88.8355 79.75 96.25 79.75C103.665 79.75 108.917 79.3551 112.551 78.8807C117.259 78.2664 120.342 74.5962 120.63 69.8574C120.836 66.4681 121 61.6731 121 55C121 48.3269 120.836 43.5319 120.63 40.1426C120.342 35.4038 117.259 31.7336 112.551 31.1193C108.917 30.6449 103.665 30.25 96.25 30.25C88.8355 30.25 83.5832 30.6449 79.9491 31.1193C75.2414 31.7336 72.1581 35.4038 71.8701 40.1426C71.6642 43.5319 71.5 48.3269 71.5 55C71.5 61.6731 71.6642 66.4681 71.8701 69.8574Z" fill="#6366F1"/>
<path fill-rule="evenodd" clip-rule="evenodd" d="M101.517 60.7943C104.756 59.0554 106.959 55.6361 106.959 51.7022C106.959 46.0067 102.342 41.3897 96.6465 41.3897C90.951 41.3897 86.334 46.0067 86.334 51.7022C86.334 55.6361 88.5365 59.0554 91.776 60.7943C88.6922 61.8992 86.0937 64.0236 84.3865 66.7612C83.1845 68.6892 84.0007 71.2712 86.2177 71.769C86.6178 71.8586 87.0325 71.9238 87.4607 71.9628C89.7977 72.176 92.8081 72.3272 96.6463 72.3272C100.484 72.3272 103.495 72.176 105.832 71.9628C106.26 71.9238 106.675 71.8586 107.075 71.7687C109.292 71.2709 110.109 68.6892 108.906 66.7612C107.199 64.0236 104.601 61.8992 101.517 60.7943Z" fill="#EEF2FF"/>
<path d="M27.5 97.4127C27.5 99.5291 29.0991 101.285 31.2122 101.402C34.1869 101.568 38.9496 101.75 45.5001 101.75C51.1998 101.75 54.8691 101.612 57.1508 101.467C59.1077 101.343 60.5 99.7301 60.5 97.7694V94.7306C60.5 92.7699 59.1077 91.1567 57.1508 91.0327C54.8691 90.8878 51.1998 90.75 45.5001 90.75C38.9496 90.75 34.1869 90.932 31.2122 91.0976C29.0991 91.215 27.5 92.9709 27.5 95.0873V97.4127Z" fill="#6366F1"/>
<path d="M27.5 75.8299C27.5 77.7634 28.8544 79.3746 30.7827 79.5152C32.5121 79.6411 35.0155 79.75 38.5 79.75C41.9845 79.75 44.4878 79.6411 46.2173 79.5152C48.1456 79.3746 49.5 77.7634 49.5 75.8299V72.6701C49.5 70.7366 48.1456 69.1254 46.2173 68.9848C44.4878 68.8589 41.9845 68.75 38.5 68.75C35.0155 68.75 32.5121 68.8589 30.7827 68.9848C28.8544 69.1254 27.5 70.7366 27.5 72.6701V75.8299Z" fill="#6366F1"/>
</svg>
