<svg width="1512" height="2144" viewBox="0 0 1512 2144" fill="none" xmlns="http://www.w3.org/2000/svg">
<g clip-path="url(#clip0_268_3)">
<rect width="1512" height="2144" fill="#F8FAFD"/>
<mask id="path-1-outside-1_268_3" maskUnits="userSpaceOnUse" x="-589.574" y="-322.882" width="3610.49" height="3610.49" fill="black">
<rect fill="white" x="-589.574" y="-322.882" width="3610.49" height="3610.49"/>
<path d="M915.812 1670.58C706.52 1746.47 56.1957 1947.41 55.8013 2161.96V2303.5L1752 2525L1623 -89.5L1115.25 -4.74992C1115.25 -4.74992 1394.5 571 1394.5 964C1394.5 1357 1125.1 1594.7 915.812 1670.58Z"/>
</mask>
<path d="M915.812 1670.58C706.52 1746.47 56.1957 1947.41 55.8013 2161.96V2303.5L1752 2525L1623 -89.5L1115.25 -4.74992C1115.25 -4.74992 1394.5 571 1394.5 964C1394.5 1357 1125.1 1594.7 915.812 1670.58Z" fill="url(#paint0_linear_268_3)"/>
<path d="M55.8013 2161.96L43.8014 2161.94L43.8013 2161.95V2161.96H55.8013ZM1115.25 -4.74992L1113.27 -16.5862C1109.54 -15.9635 1106.32 -13.6185 1104.59 -10.2583C1102.85 -6.89818 1102.8 -2.91617 1104.45 0.48686L1115.25 -4.74992ZM1623 -89.5L1634.99 -90.0914L1634.32 -103.556L1621.02 -101.336L1623 -89.5ZM1752 2525L1750.45 2536.9L1764.69 2538.76L1763.99 2524.41L1752 2525ZM55.8013 2303.5H43.8013V2314.03L54.2475 2315.4L55.8013 2303.5ZM67.8013 2161.98C67.8889 2114.32 104.428 2064.66 168.297 2014.8C231.498 1965.46 318.378 1918.31 412.47 1875.18C600.666 1788.91 814.664 1720.02 919.902 1681.86L911.722 1659.3C807.668 1697.03 591.858 1766.55 402.47 1853.36C307.771 1896.77 218.914 1944.83 153.528 1995.88C88.8098 2046.41 43.9109 2102.32 43.8014 2161.94L67.8013 2161.98ZM919.902 1681.86C1132.82 1604.66 1406.5 1363.15 1406.5 964L1382.5 964C1382.5 1350.86 1117.39 1584.73 911.722 1659.3L919.902 1681.86ZM1406.5 964C1406.5 765.283 1336.04 521.432 1266.16 328.169C1231.15 231.343 1196.14 146.851 1169.88 86.5605C1156.76 56.4112 1145.81 32.3034 1138.14 15.7198C1134.31 7.42779 1131.29 1.01611 1129.23 -3.3299C1128.2 -5.50293 1127.41 -7.1596 1126.87 -8.27677C1126.6 -8.83536 1126.4 -9.25907 1126.26 -9.54502C1126.19 -9.688 1126.14 -9.79654 1126.1 -9.87027C1126.09 -9.90714 1126.07 -9.9353 1126.06 -9.95472C1126.06 -9.96443 1126.05 -9.97243 1126.05 -9.97729C1126.05 -9.98309 1126.05 -9.9867 1115.25 -4.74992C1104.45 0.48686 1104.45 0.487642 1104.45 0.490613C1104.46 0.494528 1104.46 0.499686 1104.46 0.507502C1104.47 0.523132 1104.48 0.547497 1104.5 0.58055C1104.53 0.646658 1104.58 0.747522 1104.64 0.882781C1104.77 1.1533 1104.97 1.56139 1105.23 2.10417C1105.75 3.18973 1106.53 4.814 1107.54 6.95384C1109.57 11.2336 1112.56 17.5753 1116.36 25.794C1123.96 42.2319 1134.83 66.1749 1147.88 96.1428C1173.98 156.087 1208.79 240.094 1243.59 336.331C1313.33 529.193 1382.5 769.717 1382.5 964L1406.5 964ZM1117.23 7.08633L1624.98 -77.6638L1621.02 -101.336L1113.27 -16.5862L1117.23 7.08633ZM1611.01 -88.9087L1740.01 2525.59L1763.99 2524.41L1634.99 -90.0914L1611.01 -88.9087ZM1753.55 2513.1L57.3552 2291.6L54.2475 2315.4L1750.45 2536.9L1753.55 2513.1ZM67.8013 2303.5V2161.96H43.8013V2303.5H67.8013Z" fill="url(#paint1_linear_268_3)" mask="url(#path-1-outside-1_268_3)"/>
</g>
<defs>
<linearGradient id="paint0_linear_268_3" x1="2004.7" y1="2272.3" x2="421.45" y2="689.05" gradientUnits="userSpaceOnUse">
<stop stop-color="#FDFBFF"/>
<stop offset="1" stop-color="#F8FAFD"/>
</linearGradient>
<linearGradient id="paint1_linear_268_3" x1="1520.93" y1="307.138" x2="-139.466" y2="1968.82" gradientUnits="userSpaceOnUse">
<stop offset="0.341368" stop-color="#F4EFFF"/>
</linearGradient>
<clipPath id="clip0_268_3">
<rect width="1512" height="2144" fill="white"/>
</clipPath>
</defs>
</svg>
